User Type,Username,Date,Text
[V],HDvideos,2011-07-22T19:06Z,"INFO:
Format : AVI
Format/Info : Audio Video Interleave
File size : 677 MiB
Duration : 2h 14mn
Overall bit rate : 706 Kbps
Writing application : Lavf52.39.1
Writing library : VirtualDub build 32842/release

Video
ID : 0
Format : MPEG-4 Visual
Format profile : Advanced Simple@L5
Format settings, BVOP : 2
Format settings, QPel : No
Format settings, GMC : No warppoints
Format settings, Matrix : Default (H.263)
Muxing mode : Packed bitstream
Codec ID : XVID
Codec ID/Hint : XviD
Duration : 2h 14mn
Bit rate : 629 Kbps
Width : 624 pixels
Height : 232 pixels
Display aspect ratio : 2.690
Frame rate : 25.000 fps
Color space : YUV
Chroma subsampling : 4:2:0
Bit depth : 8 bits
Scan type : Progressive
Compression mode : Lossy
Bits/(Pixel*Frame) : 0.174
Stream size : 604 MiB (89%)
Writing library : XviD 63

Audio
ID : 1
Format : MPEG Audio
Format version : Version 1
Format profile : Layer 3
Mode : Joint stereo
Mode extension : MS Stereo
Codec ID : 55
Codec ID/Hint : MP3
Duration : 2h 14mn
Bit rate mode : Constant
Bit rate : 64.0 Kbps
Channel(s) : 2 channels
Sampling rate : 48.0 KHz
Compression mode : Lossy
Stream size : 61.4 MiB (9%)
Alignment : Aligned on interleaves
Interleave, duration : 24 ms (0.60 video frame)
Interleave, preload duration : 504 ms

Screen:
http://maxupload.net/images/14872124102786512770.png
http://maxupload.net/images/45818505202759884352.png
http://maxupload.net/images/13138796646040295310.png
http://maxupload.net/images/05362887647516935706.png
http://maxupload.net/images/69064443091262816357.png
http://maxupload.net/images/39037446022637890246.png
http://maxupload.net/images/36602381459931222311.png
http://maxupload.net/images/81241392974362545922.png
http://maxupload.net/images/39768336164531778028.png

EnjOY with HDvideos...

ENjOY with HDvideos..."
[V],HDvideos,2011-07-22T19:19Z,"Alternative:
http://www.savesnap.com/images/5da9b8.png
http://www.savesnap.com/images/8afca0.png
http://www.savesnap.com/images/82e48c.png
http://www.savesnap.com/images/955d72.png
http://www.savesnap.com/images/849553.png
http://www.savesnap.com/images/dd9368.png
http://www.savesnap.com/images/f33eaf.png"
[V],HDvideos,2011-07-22T19:52Z,"Alternate:
http://www.picasaindia.com/images/51777705011438949660.png
http://www.picasaindia.com/images/17352922227773209744.png
http://www.picasaindia.com/images/57926359633792166673.png
http://www.picasaindia.com/images/00179717985122131820.png
http://www.picasaindia.com/images/95413319859048599908.png
http://www.picasaindia.com/images/34988694585549448292.png
http://www.picasaindia.com/images/88433342087114362564.png
http://www.picasaindia.com/images/96223135620448561346.png"
,tpbfan32,2011-07-22T20:15Z,All hail HDvideos Team..! Thanks a bunch Uploader.
[V],Raider,2011-07-22T21:46Z,"COOOOOOOL
I don't know how u still not with an trusted skull!!U deserve one"
,jaanu1599,2011-07-23T13:19Z,speeeeeeeeddddddddddddddddd dude
,jaanu1599,2011-07-23T13:20Z,plz speed up dude
